<svg xmlns="http://www.w3.org/2000/svg" id="c" viewBox="8.01 8.97 23.83 23.83"><path d="M25.498,8.966h-11.132c-3.508,0-6.351,2.843-6.351,6.351v11.132c0,3.507,2.843,6.351,6.351,6.351h11.132c3.508,0,6.351-2.843,6.351-6.351v-11.132c0-3.507-2.843-6.351-6.351-6.351ZM24.829,15.569h-.379c-.454,0-.759.101-.915.303-.157.202-.234.514-.234.938v2.011c0,.525-.071.968-.212,1.331s-.423.676-.847.938c.424.262.706.575.847.938s.212.807.212,1.331v2.012c0,.423.078.736.234.937.156.202.461.303.915.303h.379v1.8h-.303c-.635,0-1.167-.061-1.596-.182-.429-.121-.771-.298-1.029-.53s-.441-.516-.552-.855c-.111-.337-.167-.724-.167-1.157v-2.285c0-.423-.101-.766-.303-1.028-.198-.258-.522-.387-.965-.391-.443.004-.766.132-.966.391-.201.262-.302.605-.302,1.028v2.285c0,.433-.056.819-.167,1.157-.111.338-.295.623-.552.855s-.6.408-1.029.53c-.428.12-.96.182-1.596.182h-.303v-1.8h.379c.454,0,.758-.101.915-.303.156-.201.234-.514.234-.937v-2.012c0-.524.07-.968.212-1.331.141-.363.423-.676.847-.938-.423-.262-.705-.575-.847-.938-.142-.363-.212-.806-.212-1.331v-2.011c0-.424-.078-.736-.234-.938-.157-.201-.461-.303-.915-.303h-.379v-1.799h.303c.635,0,1.167.06,1.596.182.429.12.771.297,1.029.529.257.233.441.517.552.855.111.338.167.724.167,1.158v2.284c0,.423.101.766.302,1.029.199.258.522.386.966.39.443-.004.766-.131.965-.39.202-.262.303-.606.303-1.029v-2.284c0-.434.055-.819.167-1.158.111-.337.295-.622.552-.855.257-.232.6-.408,1.029-.529.428-.121.96-.182,1.596-.182h.303v1.799Z"/></svg>